<?xml version="1.0" encoding="utf-8" standalone="no"?>
<!DOCTYPE svg PUBLIC "-//W3C//DTD SVG 1.1//EN"
  "http://www.w3.org/Graphics/SVG/1.1/DTD/svg11.dtd">
<svg xmlns:xlink="http://www.w3.org/1999/xlink" width="432pt" height="288pt" viewBox="0 0 432 288" xmlns="http://www.w3.org/2000/svg" version="1.1">
 <metadata>
  <rdf:RDF xmlns:dc="http://purl.org/dc/elements/1.1/" xmlns:cc="http://creativecommons.org/ns#" xmlns:rdf="http://www.w3.org/1999/02/22-rdf-syntax-ns#">
   <cc:Work>
    <dc:type rdf:resource="http://purl.org/dc/dcmitype/StillImage"/>
    <dc:date>2024-03-23T13:47:47.700467</dc:date>
    <dc:format>image/svg+xml</dc:format>
    <dc:creator>
     <cc:Agent>
      <dc:title>Matplotlib v3.6.2, https://matplotlib.org/</dc:title>
     </cc:Agent>
    </dc:creator>
   </cc:Work>
  </rdf:RDF>
 </metadata>
 <defs>
  <style type="text/css">*{stroke-linejoin: round; stroke-linecap: butt}</style>
 </defs>
 <g id="figure_1">
  <g id="patch_1">
   <path d="M 0 288 
L 432 288 
L 432 0 
L 0 0 
z
" style="fill: #ffffff"/>
  </g>
  <g id="axes_1">
   <g id="patch_2">
    <path d="M 51.84 244.8 
L 410.4 244.8 
L 410.4 14.4 
L 51.84 14.4 
z
" style="fill: #ffffff"/>
   </g>
   <g id="matplotlib.axis_1">
    <g id="xtick_1">
     <g id="line2d_1">
      <defs>
       <path id="me696d6ee1f" d="M 0 0 
L 0 3.5 
" style="stroke: #000000; stroke-width: 0.8"/>
      </defs>
      <g>
       <use xlink:href="#me696d6ee1f" x="68.138182" y="244.8" style="stroke: #000000; stroke-width: 0.8"/>
      </g>
     </g>
     <g id="text_1">
      <!-- 0 -->
      <g transform="translate(62.138182 268.465) scale(0.24 -0.24)">
       <defs>
        <path id="TimesNewRomanPSMT-30" d="M 231 2094 
Q 231 2819 450 3342 
Q 669 3866 1031 4122 
Q 1313 4325 1613 4325 
Q 2100 4325 2488 3828 
Q 2972 3213 2972 2159 
Q 2972 1422 2759 906 
Q 2547 391 2217 158 
Q 1888 -75 1581 -75 
Q 975 -75 572 641 
Q 231 1244 231 2094 
z
M 844 2016 
Q 844 1141 1059 588 
Q 1238 122 1591 122 
Q 1759 122 1940 273 
Q 2122 425 2216 781 
Q 2359 1319 2359 2297 
Q 2359 3022 2209 3506 
Q 2097 3866 1919 4016 
Q 1791 4119 1609 4119 
Q 1397 4119 1231 3928 
Q 1006 3669 925 3112 
Q 844 2556 844 2016 
z
" transform="scale(0.015625)"/>
       </defs>
       <use xlink:href="#TimesNewRomanPSMT-30"/>
      </g>
     </g>
    </g>
    <g id="xtick_2">
     <g id="line2d_2">
      <g>
       <use xlink:href="#me696d6ee1f" x="133.461556" y="244.8" style="stroke: #000000; stroke-width: 0.8"/>
      </g>
     </g>
     <g id="text_2">
      <!-- 100 -->
      <g transform="translate(115.461556 268.465) scale(0.24 -0.24)">
       <defs>
        <path id="TimesNewRomanPSMT-31" d="M 750 3822 
L 1781 4325 
L 1884 4325 
L 1884 747 
Q 1884 391 1914 303 
Q 1944 216 2037 169 
Q 2131 122 2419 116 
L 2419 0 
L 825 0 
L 825 116 
Q 1125 122 1212 167 
Q 1300 213 1334 289 
Q 1369 366 1369 747 
L 1369 3034 
Q 1369 3497 1338 3628 
Q 1316 3728 1258 3775 
Q 1200 3822 1119 3822 
Q 1003 3822 797 3725 
L 750 3822 
z
" transform="scale(0.015625)"/>
       </defs>
       <use xlink:href="#TimesNewRomanPSMT-31"/>
       <use xlink:href="#TimesNewRomanPSMT-30" x="50"/>
       <use xlink:href="#TimesNewRomanPSMT-30" x="100"/>
      </g>
     </g>
    </g>
    <g id="xtick_3">
     <g id="line2d_3">
      <g>
       <use xlink:href="#me696d6ee1f" x="198.78493" y="244.8" style="stroke: #000000; stroke-width: 0.8"/>
      </g>
     </g>
     <g id="text_3">
      <!-- 200 -->
      <g transform="translate(180.78493 268.465) scale(0.24 -0.24)">
       <defs>
        <path id="TimesNewRomanPSMT-32" d="M 2934 816 
L 2638 0 
L 138 0 
L 138 116 
Q 1241 1122 1691 1759 
Q 2141 2397 2141 2925 
Q 2141 3328 1894 3587 
Q 1647 3847 1303 3847 
Q 991 3847 742 3664 
Q 494 3481 375 3128 
L 259 3128 
Q 338 3706 661 4015 
Q 984 4325 1469 4325 
Q 1984 4325 2329 3994 
Q 2675 3663 2675 3213 
Q 2675 2891 2525 2569 
Q 2294 2063 1775 1497 
Q 997 647 803 472 
L 1909 472 
Q 2247 472 2383 497 
Q 2519 522 2628 598 
Q 2738 675 2819 816 
L 2934 816 
z
" transform="scale(0.015625)"/>
       </defs>
       <use xlink:href="#TimesNewRomanPSMT-32"/>
       <use xlink:href="#TimesNewRomanPSMT-30" x="50"/>
       <use xlink:href="#TimesNewRomanPSMT-30" x="100"/>
      </g>
     </g>
    </g>
    <g id="xtick_4">
     <g id="line2d_4">
      <g>
       <use xlink:href="#me696d6ee1f" x="264.108304" y="244.8" style="stroke: #000000; stroke-width: 0.8"/>
      </g>
     </g>
     <g id="text_4">
      <!-- 300 -->
      <g transform="translate(246.108304 268.465) scale(0.24 -0.24)">
       <defs>
        <path id="TimesNewRomanPSMT-33" d="M 325 3431 
Q 506 3859 782 4092 
Q 1059 4325 1472 4325 
Q 1981 4325 2253 3994 
Q 2459 3747 2459 3466 
Q 2459 3003 1878 2509 
Q 2269 2356 2469 2072 
Q 2669 1788 2669 1403 
Q 2669 853 2319 450 
Q 1863 -75 997 -75 
Q 569 -75 414 31 
Q 259 138 259 259 
Q 259 350 332 419 
Q 406 488 509 488 
Q 588 488 669 463 
Q 722 447 909 348 
Q 1097 250 1169 231 
Q 1284 197 1416 197 
Q 1734 197 1970 444 
Q 2206 691 2206 1028 
Q 2206 1275 2097 1509 
Q 2016 1684 1919 1775 
Q 1784 1900 1550 2001 
Q 1316 2103 1072 2103 
L 972 2103 
L 972 2197 
Q 1219 2228 1467 2375 
Q 1716 2522 1828 2728 
Q 1941 2934 1941 3181 
Q 1941 3503 1739 3701 
Q 1538 3900 1238 3900 
Q 753 3900 428 3381 
L 325 3431 
z
" transform="scale(0.015625)"/>
       </defs>
       <use xlink:href="#TimesNewRomanPSMT-33"/>
       <use xlink:href="#TimesNewRomanPSMT-30" x="50"/>
       <use xlink:href="#TimesNewRomanPSMT-30" x="100"/>
      </g>
     </g>
    </g>
    <g id="xtick_5">
     <g id="line2d_5">
      <g>
       <use xlink:href="#me696d6ee1f" x="329.431678" y="244.8" style="stroke: #000000; stroke-width: 0.8"/>
      </g>
     </g>
     <g id="text_5">
      <!-- 400 -->
      <g transform="translate(311.431678 268.465) scale(0.24 -0.24)">
       <defs>
        <path id="TimesNewRomanPSMT-34" d="M 2978 1563 
L 2978 1119 
L 2409 1119 
L 2409 0 
L 1894 0 
L 1894 1119 
L 100 1119 
L 100 1519 
L 2066 4325 
L 2409 4325 
L 2409 1563 
L 2978 1563 
z
M 1894 1563 
L 1894 3666 
L 406 1563 
L 1894 1563 
z
" transform="scale(0.015625)"/>
       </defs>
       <use xlink:href="#TimesNewRomanPSMT-34"/>
       <use xlink:href="#TimesNewRomanPSMT-30" x="50"/>
       <use xlink:href="#TimesNewRomanPSMT-30" x="100"/>
      </g>
     </g>
    </g>
    <g id="xtick_6">
     <g id="line2d_6">
      <g>
       <use xlink:href="#me696d6ee1f" x="394.755052" y="244.8" style="stroke: #000000; stroke-width: 0.8"/>
      </g>
     </g>
     <g id="text_6">
      <!-- 500 -->
      <g transform="translate(376.755052 268.465) scale(0.24 -0.24)">
       <defs>
        <path id="TimesNewRomanPSMT-35" d="M 2778 4238 
L 2534 3706 
L 1259 3706 
L 981 3138 
Q 1809 3016 2294 2522 
Q 2709 2097 2709 1522 
Q 2709 1188 2573 903 
Q 2438 619 2231 419 
Q 2025 219 1772 97 
Q 1413 -75 1034 -75 
Q 653 -75 479 54 
Q 306 184 306 341 
Q 306 428 378 495 
Q 450 563 559 563 
Q 641 563 702 538 
Q 763 513 909 409 
Q 1144 247 1384 247 
Q 1750 247 2026 523 
Q 2303 800 2303 1197 
Q 2303 1581 2056 1914 
Q 1809 2247 1375 2428 
Q 1034 2569 447 2591 
L 1259 4238 
L 2778 4238 
z
" transform="scale(0.015625)"/>
       </defs>
       <use xlink:href="#TimesNewRomanPSMT-35"/>
       <use xlink:href="#TimesNewRomanPSMT-30" x="50"/>
       <use xlink:href="#TimesNewRomanPSMT-30" x="100"/>
      </g>
     </g>
    </g>
    <g id="text_7">
     <!-- episode number -->
     <g transform="translate(199.322344 284.5425) scale(0.1 -0.1)">
      <defs>
       <path id="TimesNewRomanPSMT-65" d="M 681 1784 
Q 678 1147 991 784 
Q 1303 422 1725 422 
Q 2006 422 2214 576 
Q 2422 731 2563 1106 
L 2659 1044 
Q 2594 616 2278 264 
Q 1963 -88 1488 -88 
Q 972 -88 605 314 
Q 238 716 238 1394 
Q 238 2128 614 2539 
Q 991 2950 1559 2950 
Q 2041 2950 2350 2633 
Q 2659 2316 2659 1784 
L 681 1784 
z
M 681 1966 
L 2006 1966 
Q 1991 2241 1941 2353 
Q 1863 2528 1708 2628 
Q 1553 2728 1384 2728 
Q 1125 2728 920 2526 
Q 716 2325 681 1966 
z
" transform="scale(0.015625)"/>
       <path id="TimesNewRomanPSMT-70" d="M -6 2578 
L 875 2934 
L 994 2934 
L 994 2266 
Q 1216 2644 1439 2795 
Q 1663 2947 1909 2947 
Q 2341 2947 2628 2609 
Q 2981 2197 2981 1534 
Q 2981 794 2556 309 
Q 2206 -88 1675 -88 
Q 1444 -88 1275 -22 
Q 1150 25 994 166 
L 994 -706 
Q 994 -1000 1030 -1079 
Q 1066 -1159 1155 -1206 
Q 1244 -1253 1478 -1253 
L 1478 -1369 
L -22 -1369 
L -22 -1253 
L 56 -1253 
Q 228 -1256 350 -1188 
Q 409 -1153 442 -1076 
Q 475 -1000 475 -688 
L 475 2019 
Q 475 2297 450 2372 
Q 425 2447 370 2484 
Q 316 2522 222 2522 
Q 147 2522 31 2478 
L -6 2578 
z
M 994 2081 
L 994 1013 
Q 994 666 1022 556 
Q 1066 375 1236 237 
Q 1406 100 1666 100 
Q 1978 100 2172 344 
Q 2425 663 2425 1241 
Q 2425 1897 2138 2250 
Q 1938 2494 1663 2494 
Q 1513 2494 1366 2419 
Q 1253 2363 994 2081 
z
" transform="scale(0.015625)"/>
       <path id="TimesNewRomanPSMT-69" d="M 928 4444 
Q 1059 4444 1151 4351 
Q 1244 4259 1244 4128 
Q 1244 3997 1151 3903 
Q 1059 3809 928 3809 
Q 797 3809 703 3903 
Q 609 3997 609 4128 
Q 609 4259 701 4351 
Q 794 4444 928 4444 
z
M 1188 2947 
L 1188 647 
Q 1188 378 1227 289 
Q 1266 200 1342 156 
Q 1419 113 1622 113 
L 1622 0 
L 231 0 
L 231 113 
Q 441 113 512 153 
Q 584 194 626 287 
Q 669 381 669 647 
L 669 1750 
Q 669 2216 641 2353 
Q 619 2453 572 2492 
Q 525 2531 444 2531 
Q 356 2531 231 2484 
L 188 2597 
L 1050 2947 
L 1188 2947 
z
" transform="scale(0.015625)"/>
       <path id="TimesNewRomanPSMT-73" d="M 2050 2947 
L 2050 1972 
L 1947 1972 
Q 1828 2431 1642 2597 
Q 1456 2763 1169 2763 
Q 950 2763 815 2647 
Q 681 2531 681 2391 
Q 681 2216 781 2091 
Q 878 1963 1175 1819 
L 1631 1597 
Q 2266 1288 2266 781 
Q 2266 391 1970 151 
Q 1675 -88 1309 -88 
Q 1047 -88 709 6 
Q 606 38 541 38 
Q 469 38 428 -44 
L 325 -44 
L 325 978 
L 428 978 
Q 516 541 762 319 
Q 1009 97 1316 97 
Q 1531 97 1667 223 
Q 1803 350 1803 528 
Q 1803 744 1651 891 
Q 1500 1038 1047 1263 
Q 594 1488 453 1669 
Q 313 1847 313 2119 
Q 313 2472 555 2709 
Q 797 2947 1181 2947 
Q 1350 2947 1591 2875 
Q 1750 2828 1803 2828 
Q 1853 2828 1881 2850 
Q 1909 2872 1947 2947 
L 2050 2947 
z
" transform="scale(0.015625)"/>
       <path id="TimesNewRomanPSMT-6f" d="M 1600 2947 
Q 2250 2947 2644 2453 
Q 2978 2031 2978 1484 
Q 2978 1100 2793 706 
Q 2609 313 2286 112 
Q 1963 -88 1566 -88 
Q 919 -88 538 428 
Q 216 863 216 1403 
Q 216 1797 411 2186 
Q 606 2575 925 2761 
Q 1244 2947 1600 2947 
z
M 1503 2744 
Q 1338 2744 1170 2645 
Q 1003 2547 900 2300 
Q 797 2053 797 1666 
Q 797 1041 1045 587 
Q 1294 134 1700 134 
Q 2003 134 2200 384 
Q 2397 634 2397 1244 
Q 2397 2006 2069 2444 
Q 1847 2744 1503 2744 
z
" transform="scale(0.015625)"/>
       <path id="TimesNewRomanPSMT-64" d="M 2222 322 
Q 2013 103 1813 7 
Q 1613 -88 1381 -88 
Q 913 -88 563 304 
Q 213 697 213 1313 
Q 213 1928 600 2439 
Q 988 2950 1597 2950 
Q 1975 2950 2222 2709 
L 2222 3238 
Q 2222 3728 2198 3840 
Q 2175 3953 2125 3993 
Q 2075 4034 2000 4034 
Q 1919 4034 1784 3984 
L 1744 4094 
L 2597 4444 
L 2738 4444 
L 2738 1134 
Q 2738 631 2761 520 
Q 2784 409 2836 365 
Q 2888 322 2956 322 
Q 3041 322 3181 375 
L 3216 266 
L 2366 -88 
L 2222 -88 
L 2222 322 
z
M 2222 541 
L 2222 2016 
Q 2203 2228 2109 2403 
Q 2016 2578 1861 2667 
Q 1706 2756 1559 2756 
Q 1284 2756 1069 2509 
Q 784 2184 784 1559 
Q 784 928 1059 592 
Q 1334 256 1672 256 
Q 1956 256 2222 541 
z
" transform="scale(0.015625)"/>
       <path id="TimesNewRomanPSMT-20" transform="scale(0.015625)"/>
       <path id="TimesNewRomanPSMT-6e" d="M 1034 2341 
Q 1538 2947 1994 2947 
Q 2228 2947 2397 2830 
Q 2566 2713 2666 2444 
Q 2734 2256 2734 1869 
L 2734 647 
Q 2734 375 2778 278 
Q 2813 200 2889 156 
Q 2966 113 3172 113 
L 3172 0 
L 1756 0 
L 1756 113 
L 1816 113 
Q 2016 113 2095 173 
Q 2175 234 2206 353 
Q 2219 400 2219 647 
L 2219 1819 
Q 2219 2209 2117 2386 
Q 2016 2563 1775 2563 
Q 1403 2563 1034 2156 
L 1034 647 
Q 1034 356 1069 288 
Q 1113 197 1189 155 
Q 1266 113 1500 113 
L 1500 0 
L 84 0 
L 84 113 
L 147 113 
Q 366 113 442 223 
Q 519 334 519 647 
L 519 1709 
Q 519 2225 495 2337 
Q 472 2450 423 2490 
Q 375 2531 294 2531 
Q 206 2531 84 2484 
L 38 2597 
L 900 2947 
L 1034 2947 
L 1034 2341 
z
" transform="scale(0.015625)"/>
       <path id="TimesNewRomanPSMT-75" d="M 2709 2863 
L 2709 1128 
Q 2709 631 2732 520 
Q 2756 409 2807 365 
Q 2859 322 2928 322 
Q 3025 322 3147 375 
L 3191 266 
L 2334 -88 
L 2194 -88 
L 2194 519 
Q 1825 119 1631 15 
Q 1438 -88 1222 -88 
Q 981 -88 804 51 
Q 628 191 559 409 
Q 491 628 491 1028 
L 491 2306 
Q 491 2509 447 2587 
Q 403 2666 317 2708 
Q 231 2750 6 2747 
L 6 2863 
L 1009 2863 
L 1009 947 
Q 1009 547 1148 422 
Q 1288 297 1484 297 
Q 1619 297 1789 381 
Q 1959 466 2194 703 
L 2194 2325 
Q 2194 2569 2105 2655 
Q 2016 2741 1734 2747 
L 1734 2863 
L 2709 2863 
z
" transform="scale(0.015625)"/>
       <path id="TimesNewRomanPSMT-6d" d="M 1050 2338 
Q 1363 2650 1419 2697 
Q 1559 2816 1721 2881 
Q 1884 2947 2044 2947 
Q 2313 2947 2506 2790 
Q 2700 2634 2766 2338 
Q 3088 2713 3309 2830 
Q 3531 2947 3766 2947 
Q 3994 2947 4170 2830 
Q 4347 2713 4450 2447 
Q 4519 2266 4519 1878 
L 4519 647 
Q 4519 378 4559 278 
Q 4591 209 4675 161 
Q 4759 113 4950 113 
L 4950 0 
L 3538 0 
L 3538 113 
L 3597 113 
Q 3781 113 3884 184 
Q 3956 234 3988 344 
Q 4000 397 4000 647 
L 4000 1878 
Q 4000 2228 3916 2372 
Q 3794 2572 3525 2572 
Q 3359 2572 3192 2489 
Q 3025 2406 2788 2181 
L 2781 2147 
L 2788 2013 
L 2788 647 
Q 2788 353 2820 281 
Q 2853 209 2943 161 
Q 3034 113 3253 113 
L 3253 0 
L 1806 0 
L 1806 113 
Q 2044 113 2133 169 
Q 2222 225 2256 338 
Q 2272 391 2272 647 
L 2272 1878 
Q 2272 2228 2169 2381 
Q 2031 2581 1784 2581 
Q 1616 2581 1450 2491 
Q 1191 2353 1050 2181 
L 1050 647 
Q 1050 366 1089 281 
Q 1128 197 1204 155 
Q 1281 113 1516 113 
L 1516 0 
L 100 0 
L 100 113 
Q 297 113 375 155 
Q 453 197 493 289 
Q 534 381 534 647 
L 534 1741 
Q 534 2213 506 2350 
Q 484 2453 437 2492 
Q 391 2531 309 2531 
Q 222 2531 100 2484 
L 53 2597 
L 916 2947 
L 1050 2947 
L 1050 2338 
z
" transform="scale(0.015625)"/>
       <path id="TimesNewRomanPSMT-62" d="M 984 2369 
Q 1400 2947 1881 2947 
Q 2322 2947 2650 2570 
Q 2978 2194 2978 1541 
Q 2978 778 2472 313 
Q 2038 -88 1503 -88 
Q 1253 -88 995 3 
Q 738 94 469 275 
L 469 3241 
Q 469 3728 445 3840 
Q 422 3953 372 3993 
Q 322 4034 247 4034 
Q 159 4034 28 3984 
L -16 4094 
L 844 4444 
L 984 4444 
L 984 2369 
z
M 984 2169 
L 984 456 
Q 1144 300 1314 220 
Q 1484 141 1663 141 
Q 1947 141 2192 453 
Q 2438 766 2438 1363 
Q 2438 1913 2192 2208 
Q 1947 2503 1634 2503 
Q 1469 2503 1303 2419 
Q 1178 2356 984 2169 
z
" transform="scale(0.015625)"/>
       <path id="TimesNewRomanPSMT-72" d="M 1038 2947 
L 1038 2303 
Q 1397 2947 1775 2947 
Q 1947 2947 2059 2842 
Q 2172 2738 2172 2600 
Q 2172 2478 2090 2393 
Q 2009 2309 1897 2309 
Q 1788 2309 1652 2417 
Q 1516 2525 1450 2525 
Q 1394 2525 1328 2463 
Q 1188 2334 1038 2041 
L 1038 669 
Q 1038 431 1097 309 
Q 1138 225 1241 169 
Q 1344 113 1538 113 
L 1538 0 
L 72 0 
L 72 113 
Q 291 113 397 181 
Q 475 231 506 341 
Q 522 394 522 644 
L 522 1753 
Q 522 2253 501 2348 
Q 481 2444 426 2487 
Q 372 2531 291 2531 
Q 194 2531 72 2484 
L 41 2597 
L 906 2947 
L 1038 2947 
z
" transform="scale(0.015625)"/>
      </defs>
      <use xlink:href="#TimesNewRomanPSMT-65"/>
      <use xlink:href="#TimesNewRomanPSMT-70" x="44.384766"/>
      <use xlink:href="#TimesNewRomanPSMT-69" x="94.384766"/>
      <use xlink:href="#TimesNewRomanPSMT-73" x="122.167969"/>
      <use xlink:href="#TimesNewRomanPSMT-6f" x="161.083984"/>
      <use xlink:href="#TimesNewRomanPSMT-64" x="211.083984"/>
      <use xlink:href="#TimesNewRomanPSMT-65" x="261.083984"/>
      <use xlink:href="#TimesNewRomanPSMT-20" x="305.46875"/>
      <use xlink:href="#TimesNewRomanPSMT-6e" x="330.46875"/>
      <use xlink:href="#TimesNewRomanPSMT-75" x="380.46875"/>
      <use xlink:href="#TimesNewRomanPSMT-6d" x="430.46875"/>
      <use xlink:href="#TimesNewRomanPSMT-62" x="508.251953"/>
      <use xlink:href="#TimesNewRomanPSMT-65" x="558.251953"/>
      <use xlink:href="#TimesNewRomanPSMT-72" x="602.636719"/>
     </g>
    </g>
   </g>
   <g id="matplotlib.axis_2">
    <g id="ytick_1">
     <g id="line2d_7">
      <defs>
       <path id="mac042d6690" d="M 0 0 
L -3.5 0 
" style="stroke: #000000; stroke-width: 0.8"/>
      </defs>
      <g>
       <use xlink:href="#mac042d6690" x="51.84" y="24.029855" style="stroke: #000000; stroke-width: 0.8"/>
      </g>
     </g>
     <g id="text_8">
      <!-- $\mathdefault{10^{-2}}$ -->
      <g transform="translate(1.4 34.66298) scale(0.24 -0.24)">
       <defs>
        <path id="TimesNewRomanPSMT-2212" d="M 3484 2000 
L 116 2000 
L 116 2256 
L 3484 2256 
L 3484 2000 
z
" transform="scale(0.015625)"/>
       </defs>
       <use xlink:href="#TimesNewRomanPSMT-31" transform="translate(0 0.582813)"/>
       <use xlink:href="#TimesNewRomanPSMT-30" transform="translate(50 0.582813)"/>
       <use xlink:href="#TimesNewRomanPSMT-2212" transform="translate(101.502813 60.695312) scale(0.7)"/>
       <use xlink:href="#TimesNewRomanPSMT-32" transform="translate(140.980352 60.695312) scale(0.7)"/>
      </g>
     </g>
    </g>
    <g id="ytick_2">
     <g id="line2d_8">
      <defs>
       <path id="mac610596c2" d="M 0 0 
L -2 0 
" style="stroke: #000000; stroke-width: 0.6"/>
      </defs>
      <g>
       <use xlink:href="#mac610596c2" x="51.84" y="195.751686" style="stroke: #000000; stroke-width: 0.6"/>
      </g>
     </g>
     <g id="text_9">
      <!-- $\mathdefault{2\times10^{-3}}$ -->
      <g transform="translate(13.84 200.182155) scale(0.1 -0.1)">
       <defs>
        <path id="TimesNewRomanPSMT-d7" d="M 516 1025 
L 1619 2128 
L 519 3228 
L 700 3409 
L 1800 2309 
L 2900 3409 
L 3075 3231 
L 1975 2131 
L 3081 1025 
L 2903 844 
L 1797 1950 
L 694 847 
L 516 1025 
z
" transform="scale(0.015625)"/>
       </defs>
       <use xlink:href="#TimesNewRomanPSMT-32" transform="translate(0 0.582813)"/>
       <use xlink:href="#TimesNewRomanPSMT-d7" transform="translate(69.482422 0.582813)"/>
       <use xlink:href="#TimesNewRomanPSMT-31" transform="translate(145.361328 0.582813)"/>
       <use xlink:href="#TimesNewRomanPSMT-30" transform="translate(195.361328 0.582813)"/>
       <use xlink:href="#TimesNewRomanPSMT-2212" transform="translate(246.864141 60.695312) scale(0.7)"/>
       <use xlink:href="#TimesNewRomanPSMT-33" transform="translate(286.34168 60.695312) scale(0.7)"/>
      </g>
     </g>
    </g>
    <g id="ytick_3">
     <g id="line2d_9">
      <g>
       <use xlink:href="#mac610596c2" x="51.84" y="152.489868" style="stroke: #000000; stroke-width: 0.6"/>
      </g>
     </g>
     <g id="text_10">
      <!-- $\mathdefault{3\times10^{-3}}$ -->
      <g transform="translate(13.84 156.920336) scale(0.1 -0.1)">
       <use xlink:href="#TimesNewRomanPSMT-33" transform="translate(0 0.582813)"/>
       <use xlink:href="#TimesNewRomanPSMT-d7" transform="translate(69.482422 0.582813)"/>
       <use xlink:href="#TimesNewRomanPSMT-31" transform="translate(145.361328 0.582813)"/>
       <use xlink:href="#TimesNewRomanPSMT-30" transform="translate(195.361328 0.582813)"/>
       <use xlink:href="#TimesNewRomanPSMT-2212" transform="translate(246.864141 60.695312) scale(0.7)"/>
       <use xlink:href="#TimesNewRomanPSMT-33" transform="translate(286.34168 60.695312) scale(0.7)"/>
      </g>
     </g>
    </g>
    <g id="ytick_4">
     <g id="line2d_10">
      <g>
       <use xlink:href="#mac610596c2" x="51.84" y="121.795119" style="stroke: #000000; stroke-width: 0.6"/>
      </g>
     </g>
     <g id="text_11">
      <!-- $\mathdefault{4\times10^{-3}}$ -->
      <g transform="translate(13.84 126.225588) scale(0.1 -0.1)">
       <use xlink:href="#TimesNewRomanPSMT-34" transform="translate(0 0.582813)"/>
       <use xlink:href="#TimesNewRomanPSMT-d7" transform="translate(69.482422 0.582813)"/>
       <use xlink:href="#TimesNewRomanPSMT-31" transform="translate(145.361328 0.582813)"/>
       <use xlink:href="#TimesNewRomanPSMT-30" transform="translate(195.361328 0.582813)"/>
       <use xlink:href="#TimesNewRomanPSMT-2212" transform="translate(246.864141 60.695312) scale(0.7)"/>
       <use xlink:href="#TimesNewRomanPSMT-33" transform="translate(286.34168 60.695312) scale(0.7)"/>
      </g>
     </g>
    </g>
    <g id="ytick_5">
     <g id="line2d_11">
      <g>
       <use xlink:href="#mac610596c2" x="51.84" y="97.986422" style="stroke: #000000; stroke-width: 0.6"/>
      </g>
     </g>
    </g>
    <g id="ytick_6">
     <g id="line2d_12">
      <g>
       <use xlink:href="#mac610596c2" x="51.84" y="78.5333" style="stroke: #000000; stroke-width: 0.6"/>
      </g>
     </g>
     <g id="text_12">
      <!-- $\mathdefault{6\times10^{-3}}$ -->
      <g transform="translate(13.84 82.963769) scale(0.1 -0.1)">
       <defs>
        <path id="TimesNewRomanPSMT-36" d="M 2869 4325 
L 2869 4209 
Q 2456 4169 2195 4045 
Q 1934 3922 1679 3669 
Q 1425 3416 1258 3105 
Q 1091 2794 978 2366 
Q 1428 2675 1881 2675 
Q 2316 2675 2634 2325 
Q 2953 1975 2953 1425 
Q 2953 894 2631 456 
Q 2244 -75 1606 -75 
Q 1172 -75 869 213 
Q 275 772 275 1663 
Q 275 2231 503 2743 
Q 731 3256 1154 3653 
Q 1578 4050 1965 4187 
Q 2353 4325 2688 4325 
L 2869 4325 
z
M 925 2138 
Q 869 1716 869 1456 
Q 869 1156 980 804 
Q 1091 453 1309 247 
Q 1469 100 1697 100 
Q 1969 100 2183 356 
Q 2397 613 2397 1088 
Q 2397 1622 2184 2012 
Q 1972 2403 1581 2403 
Q 1463 2403 1327 2353 
Q 1191 2303 925 2138 
z
" transform="scale(0.015625)"/>
       </defs>
       <use xlink:href="#TimesNewRomanPSMT-36" transform="translate(0 0.582813)"/>
       <use xlink:href="#TimesNewRomanPSMT-d7" transform="translate(69.482422 0.582813)"/>
       <use xlink:href="#TimesNewRomanPSMT-31" transform="translate(145.361328 0.582813)"/>
       <use xlink:href="#TimesNewRomanPSMT-30" transform="translate(195.361328 0.582813)"/>
       <use xlink:href="#TimesNewRomanPSMT-2212" transform="translate(246.864141 60.695312) scale(0.7)"/>
       <use xlink:href="#TimesNewRomanPSMT-33" transform="translate(286.34168 60.695312) scale(0.7)"/>
      </g>
     </g>
    </g>
    <g id="ytick_7">
     <g id="line2d_13">
      <g>
       <use xlink:href="#mac610596c2" x="51.84" y="62.08592" style="stroke: #000000; stroke-width: 0.6"/>
      </g>
     </g>
    </g>
    <g id="ytick_8">
     <g id="line2d_14">
      <g>
       <use xlink:href="#mac610596c2" x="51.84" y="47.838552" style="stroke: #000000; stroke-width: 0.6"/>
      </g>
     </g>
    </g>
    <g id="ytick_9">
     <g id="line2d_15">
      <g>
       <use xlink:href="#mac610596c2" x="51.84" y="35.271482" style="stroke: #000000; stroke-width: 0.6"/>
      </g>
     </g>
    </g>
    <g id="text_13">
     <!-- Loss -->
     <g transform="translate(-4.739063 139.046094) rotate(-90) scale(0.1 -0.1)">
      <defs>
       <path id="TimesNewRomanPSMT-4c" d="M 3669 1172 
L 3772 1150 
L 3409 0 
L 128 0 
L 128 116 
L 288 116 
Q 556 116 672 291 
Q 738 391 738 753 
L 738 3488 
Q 738 3884 650 3984 
Q 528 4122 288 4122 
L 128 4122 
L 128 4238 
L 2047 4238 
L 2047 4122 
Q 1709 4125 1573 4059 
Q 1438 3994 1388 3894 
Q 1338 3794 1338 3416 
L 1338 753 
Q 1338 494 1388 397 
Q 1425 331 1503 300 
Q 1581 269 1991 269 
L 2300 269 
Q 2788 269 2984 341 
Q 3181 413 3343 595 
Q 3506 778 3669 1172 
z
" transform="scale(0.015625)"/>
      </defs>
      <use xlink:href="#TimesNewRomanPSMT-4c"/>
      <use xlink:href="#TimesNewRomanPSMT-6f" x="61.083984"/>
      <use xlink:href="#TimesNewRomanPSMT-73" x="111.083984"/>
      <use xlink:href="#TimesNewRomanPSMT-73" x="150"/>
     </g>
    </g>
   </g>
   <g id="line2d_16">
    <path d="M 68.138182 24.872727 
L 68.791416 90.370147 
L 69.444649 118.626635 
L 70.097883 134.919272 
L 70.751117 144.630472 
L 71.404351 150.832192 
L 72.057584 154.987356 
L 73.364052 160.885597 
L 74.017285 163.203147 
L 75.976987 168.265583 
L 77.936688 172.459039 
L 79.243155 174.847426 
L 81.202857 177.784469 
L 84.469025 181.796592 
L 85.122259 182.462295 
L 85.775493 182.868753 
L 86.428727 183.781486 
L 89.041662 186.116475 
L 89.694895 186.438945 
L 91.001363 187.547039 
L 92.30783 188.365602 
L 94.267531 189.595271 
L 94.920765 190.315036 
L 97.5337 191.791484 
L 100.146635 192.904783 
L 101.453103 193.813888 
L 102.106336 193.990411 
L 103.412804 194.723006 
L 105.372505 195.00106 
L 107.332206 196.308031 
L 108.638674 196.666935 
L 109.291907 196.597088 
L 109.945141 197.15123 
L 110.598375 197.295289 
L 111.251609 197.712579 
L 112.558076 198.265121 
L 113.21131 198.375105 
L 113.864544 198.236524 
L 114.517777 198.450718 
L 115.824245 199.265105 
L 116.477479 199.272846 
L 118.43718 200.043722 
L 119.090414 199.960653 
L 121.050115 200.822962 
L 122.356582 201.273556 
L 123.009816 201.370313 
L 123.66305 201.761784 
L 124.316283 201.868646 
L 124.969517 202.136061 
L 126.275985 202.346569 
L 126.929218 202.54969 
L 127.582452 202.636005 
L 128.235686 202.97154 
L 128.88892 203.121931 
L 129.542153 203.09584 
L 130.195387 203.205194 
L 131.501855 203.937161 
L 132.808322 204.348858 
L 133.461556 204.374933 
L 134.11479 204.661147 
L 134.768023 204.71603 
L 135.421257 204.612939 
L 136.074491 204.962626 
L 136.727725 204.987416 
L 138.034192 205.371136 
L 138.687426 205.311214 
L 139.34066 205.714804 
L 139.993893 205.494496 
L 140.647127 205.805896 
L 141.953594 206.622582 
L 142.606828 206.538795 
L 143.260062 206.618862 
L 144.566529 207.012135 
L 145.219763 206.858514 
L 145.872997 207.268764 
L 146.526231 207.270999 
L 147.832698 207.491917 
L 148.485932 207.868444 
L 149.139166 207.952851 
L 149.792399 208.204546 
L 150.445633 207.940833 
L 151.098867 208.204734 
L 151.752101 208.20442 
L 152.405334 208.578662 
L 153.058568 208.63604 
L 154.365036 209.159634 
L 155.671503 209.290304 
L 156.324737 209.385822 
L 156.97797 208.972484 
L 158.284438 209.717223 
L 158.937672 209.89268 
L 160.244139 209.949208 
L 160.897373 210.392917 
L 162.20384 210.462264 
L 162.857074 210.680653 
L 164.816775 210.657919 
L 165.470009 211.216342 
L 166.123243 211.498111 
L 167.42971 211.465371 
L 168.082944 211.611795 
L 168.736178 211.4061 
L 170.695879 211.832473 
L 171.349113 211.41107 
L 172.002347 211.753795 
L 172.65558 212.547384 
L 173.308814 212.75206 
L 175.268515 212.670321 
L 175.921749 212.979082 
L 176.574983 212.693336 
L 177.228216 213.121519 
L 177.88145 213.774922 
L 179.841151 214.097742 
L 180.494385 213.659997 
L 181.147619 213.881637 
L 181.800853 213.686106 
L 182.454086 214.183202 
L 183.760554 214.426335 
L 184.413788 214.129942 
L 185.067021 214.499317 
L 185.720255 215.14567 
L 186.373489 215.063008 
L 187.026723 215.178315 
L 187.679956 215.179954 
L 188.33319 215.488122 
L 190.292891 215.81266 
L 190.946125 215.871679 
L 191.599359 216.075971 
L 192.252592 215.657876 
L 193.55906 216.524222 
L 194.212294 216.456229 
L 194.865527 216.662498 
L 195.518761 216.45687 
L 196.171995 216.612351 
L 197.478462 217.262365 
L 198.131696 217.150265 
L 198.78493 217.196246 
L 199.438164 217.458165 
L 200.091397 217.515359 
L 200.744631 217.801687 
L 202.051099 217.83627 
L 202.704332 217.447326 
L 203.357566 217.497502 
L 204.0108 217.895747 
L 204.664034 218.148886 
L 205.317267 218.033265 
L 205.970501 218.306118 
L 206.623735 218.160723 
L 207.276968 218.605988 
L 207.930202 218.819212 
L 208.583436 218.65237 
L 209.23667 218.899258 
L 210.543137 218.666257 
L 211.196371 218.996175 
L 211.849605 219.196981 
L 213.809306 218.77214 
L 214.46254 218.980569 
L 215.769007 219.944307 
L 217.075475 219.726508 
L 217.728708 219.368923 
L 218.381942 219.934802 
L 219.035176 219.838679 
L 219.68841 219.375773 
L 220.341643 220.117693 
L 220.994877 219.446607 
L 221.648111 220.457874 
L 222.301345 220.413377 
L 222.954578 220.521714 
L 223.607812 220.792853 
L 225.567513 221.22424 
L 227.527214 220.982871 
L 228.180448 221.297266 
L 228.833682 221.455535 
L 229.486916 220.895389 
L 230.140149 221.106153 
L 230.793383 221.100293 
L 231.446617 221.216883 
L 233.406318 222.07806 
L 234.059552 222.22697 
L 234.712786 222.063206 
L 235.366019 221.725488 
L 236.019253 222.051992 
L 236.672487 222.570457 
L 237.325721 222.636284 
L 237.978954 222.862417 
L 238.632188 222.358656 
L 239.285422 222.096916 
L 239.938655 222.666116 
L 240.591889 222.930123 
L 241.898357 222.507383 
L 242.55159 222.923409 
L 243.204824 222.873331 
L 243.858058 221.779453 
L 244.511292 222.748886 
L 245.164525 223.303492 
L 245.817759 223.641901 
L 246.470993 223.599201 
L 247.124227 223.731753 
L 249.083928 222.594264 
L 249.737162 223.071706 
L 250.390395 221.655494 
L 251.043629 223.44215 
L 251.696863 224.186935 
L 252.350097 224.16859 
L 253.00333 224.50736 
L 253.656564 224.7077 
L 254.963032 223.959526 
L 256.269499 223.831902 
L 256.922733 224.112982 
L 257.575966 224.202583 
L 258.882434 225.150899 
L 259.535668 225.201353 
L 260.842135 224.836442 
L 261.495369 225.273149 
L 262.148603 225.175599 
L 262.801836 225.261339 
L 264.108304 224.423816 
L 264.761538 224.511109 
L 265.414771 224.250831 
L 266.068005 223.404076 
L 266.721239 223.396029 
L 267.374473 225.079299 
L 268.027706 225.674387 
L 268.68094 225.720846 
L 269.334174 225.637867 
L 269.987408 225.801955 
L 270.640641 225.67169 
L 271.293875 225.407446 
L 271.947109 226.056907 
L 272.600343 226.044647 
L 273.253576 225.853576 
L 273.90681 225.82633 
L 275.213277 226.387947 
L 275.866511 226.383966 
L 276.519745 226.537619 
L 277.172979 226.380531 
L 277.826212 225.468853 
L 278.479446 225.500612 
L 279.13268 225.983683 
L 279.785914 226.074086 
L 280.439147 226.819313 
L 281.092381 226.511707 
L 281.745615 226.582342 
L 282.398849 226.884091 
L 283.052082 226.904922 
L 283.705316 226.799164 
L 284.35855 227.100837 
L 285.665017 226.374995 
L 286.318251 226.654608 
L 286.971485 227.086424 
L 288.277952 227.417862 
L 288.931186 227.007604 
L 289.58442 227.18261 
L 290.237653 227.480203 
L 290.890887 227.386296 
L 293.503822 227.856073 
L 294.157056 227.458281 
L 294.81029 227.577247 
L 295.463523 227.479601 
L 296.116757 227.848672 
L 296.769991 227.854361 
L 297.423225 227.545291 
L 298.076458 228.278019 
L 298.729692 228.223327 
L 299.382926 228.508466 
L 300.03616 228.606662 
L 300.689393 228.062318 
L 301.342627 228.161754 
L 301.995861 227.929006 
L 302.649095 228.6202 
L 303.302328 228.649031 
L 303.955562 227.881626 
L 304.608796 226.908506 
L 305.26203 228.041395 
L 305.915263 228.777288 
L 306.568497 228.549858 
L 307.221731 228.447057 
L 307.874964 228.607237 
L 308.528198 229.124099 
L 309.181432 229.213838 
L 309.834666 229.123156 
L 310.487899 228.864287 
L 311.141133 229.016637 
L 311.794367 229.455864 
L 313.100834 229.187802 
L 313.754068 229.209555 
L 314.407302 228.483496 
L 315.060536 229.254034 
L 316.367003 228.818853 
L 317.020237 229.271702 
L 317.673471 229.58281 
L 318.326704 229.680976 
L 318.979938 229.467236 
L 319.633172 229.826822 
L 320.286406 229.564827 
L 320.939639 229.577975 
L 321.592873 229.197964 
L 322.246107 229.227852 
L 323.552574 229.583134 
L 324.205808 229.582324 
L 324.859042 230.0046 
L 325.512275 230.243186 
L 326.818743 229.99651 
L 327.471977 230.243306 
L 328.12521 229.742348 
L 329.431678 230.264434 
L 330.084912 230.470423 
L 331.391379 230.041327 
L 332.044613 230.435568 
L 332.697847 230.423319 
L 333.35108 230.661423 
L 334.004314 230.183224 
L 335.310782 230.854699 
L 335.964015 230.723474 
L 336.617249 230.939281 
L 337.270483 230.951132 
L 337.923717 230.64821 
L 338.57695 230.792641 
L 339.230184 230.417646 
L 339.883418 229.347158 
L 341.189885 231.091641 
L 341.843119 231.213484 
L 342.496353 231.052589 
L 343.149586 230.747663 
L 344.456054 231.549319 
L 345.109288 231.069692 
L 346.415755 230.447277 
L 347.068989 230.725508 
L 347.722223 230.790528 
L 349.02869 231.591334 
L 349.681924 231.58493 
L 350.335158 232.064649 
L 350.988391 231.815141 
L 351.641625 231.937159 
L 352.948093 231.575459 
L 353.601326 231.683199 
L 354.25456 231.550491 
L 354.907794 231.881134 
L 355.561028 231.71501 
L 356.214261 231.861356 
L 356.867495 231.867864 
L 357.520729 232.217673 
L 359.48043 232.506026 
L 360.786897 232.25879 
L 361.440131 232.324909 
L 362.093365 231.948397 
L 362.746599 231.014527 
L 363.399832 231.992716 
L 364.053066 231.865521 
L 364.7063 232.344782 
L 365.359534 232.174702 
L 366.012767 232.133347 
L 367.319235 232.748451 
L 367.972469 232.411024 
L 368.625702 232.419738 
L 369.278936 232.316414 
L 369.93217 233.127071 
L 371.238637 232.958187 
L 371.891871 232.720704 
L 372.545105 232.698075 
L 373.198338 232.1345 
L 373.851572 232.406926 
L 374.504806 231.591621 
L 375.15804 233.070373 
L 375.811273 233.691885 
L 376.464507 233.189725 
L 377.770975 233.27053 
L 378.424208 232.938499 
L 379.077442 232.98148 
L 379.730676 233.477006 
L 380.38391 233.257545 
L 381.690377 233.414253 
L 382.343611 233.773106 
L 382.996845 233.985295 
L 383.650078 233.169668 
L 384.303312 233.720497 
L 384.956546 234.052947 
L 385.60978 233.311657 
L 386.263013 233.189611 
L 386.916247 232.246181 
L 387.569481 230.948912 
L 388.222715 230.915498 
L 388.875948 232.168726 
L 389.529182 234.005293 
L 390.835649 233.742724 
L 391.488883 234.007604 
L 392.142117 233.592528 
L 392.795351 233.83182 
L 393.448584 234.22009 
L 394.101818 234.327273 
L 394.101818 234.327273 
" clip-path="url(#pce4b11cd4b)" style="fill: none; stroke: #000000; stroke-opacity: 0.5; stroke-width: 1.5; stroke-linecap: square"/>
   </g>
   <g id="line2d_17">
    <path d="M 68.138182 78.848541 
L 68.791416 108.220487 
L 69.444649 122.771923 
L 70.097883 131.912055 
L 70.751117 136.968072 
L 71.404351 140.326274 
L 72.057584 142.613141 
L 73.364052 145.563186 
L 74.017285 145.869114 
L 74.670519 145.687958 
L 75.323753 146.876141 
L 75.976987 146.955905 
L 76.63022 147.703787 
L 77.283454 148.18184 
L 77.936688 148.814902 
L 78.589922 148.967002 
L 79.243155 149.705339 
L 79.896389 149.017103 
L 80.549623 150.177181 
L 81.202857 149.115741 
L 81.85609 150.244946 
L 82.509324 149.99097 
L 83.162558 150.147771 
L 83.815792 150.709893 
L 85.122259 150.972673 
L 85.775493 150.642109 
L 86.428727 150.55677 
L 87.08196 150.782038 
L 87.735194 150.758872 
L 88.388428 149.787716 
L 89.041662 149.481759 
L 89.694895 150.84055 
L 90.348129 149.974535 
L 91.001363 150.5082 
L 91.654596 149.798721 
L 92.961064 149.818449 
L 93.614298 148.47513 
L 94.267531 149.007926 
L 94.920765 150.340545 
L 95.573999 148.942 
L 96.227233 149.672808 
L 96.880466 148.716438 
L 97.5337 149.067718 
L 98.186934 148.8475 
L 98.840168 149.25495 
L 99.493401 148.254635 
L 100.146635 148.360894 
L 100.799869 148.209098 
L 101.453103 149.075866 
L 102.106336 148.959391 
L 102.75957 149.334921 
L 103.412804 148.645899 
L 104.719271 148.217356 
L 105.372505 148.53847 
L 106.025739 148.485961 
L 106.678972 149.144138 
L 107.332206 148.926486 
L 107.98544 148.484884 
L 108.638674 148.512819 
L 109.291907 148.885585 
L 109.945141 147.52361 
L 110.598375 148.294969 
L 111.251609 147.511826 
L 111.904842 147.974054 
L 112.558076 148.973051 
L 113.21131 148.521714 
L 113.864544 148.611062 
L 114.517777 147.402792 
L 115.171011 147.722261 
L 115.824245 147.566807 
L 116.477479 147.91722 
L 117.783946 148.419464 
L 118.43718 147.87457 
L 119.090414 147.96568 
L 120.396881 147.642444 
L 121.050115 147.632079 
L 121.703349 147.374831 
L 122.356582 146.841925 
L 123.009816 147.915562 
L 123.66305 148.01251 
L 124.316283 147.430327 
L 124.969517 146.653152 
L 125.622751 147.440001 
L 126.275985 147.898181 
L 126.929218 145.979372 
L 127.582452 147.475817 
L 128.235686 146.898864 
L 128.88892 146.880525 
L 129.542153 146.664043 
L 130.195387 147.095724 
L 130.848621 146.770863 
L 131.501855 146.573591 
L 132.155088 146.028799 
L 132.808322 146.439078 
L 133.461556 146.703583 
L 134.11479 145.508482 
L 135.421257 146.498849 
L 136.074491 146.282076 
L 136.727725 146.894197 
L 137.380958 145.522654 
L 138.034192 146.168859 
L 139.34066 146.70083 
L 139.993893 146.263616 
L 140.647127 146.191096 
L 141.300361 145.848026 
L 141.953594 144.785531 
L 142.606828 146.039314 
L 143.260062 146.422602 
L 143.913296 146.021426 
L 144.566529 144.412268 
L 145.219763 145.485728 
L 145.872997 145.168833 
L 146.526231 145.321495 
L 147.179464 144.863747 
L 147.832698 145.234502 
L 148.485932 144.785701 
L 149.792399 144.865998 
L 150.445633 144.969759 
L 151.098867 144.445423 
L 151.752101 144.803444 
L 152.405334 144.836227 
L 153.058568 144.177174 
L 153.711802 144.720807 
L 154.365036 144.689353 
L 155.018269 144.393638 
L 155.671503 144.951448 
L 156.324737 144.740442 
L 156.97797 144.372417 
L 157.631204 144.834339 
L 158.284438 143.773203 
L 159.590905 144.374611 
L 160.244139 145.02543 
L 160.897373 144.079131 
L 161.550607 144.249494 
L 162.20384 145.460699 
L 162.857074 143.934517 
L 163.510308 144.618541 
L 164.163542 144.774962 
L 164.816775 144.57293 
L 165.470009 144.884557 
L 166.123243 143.647462 
L 166.776477 144.224309 
L 167.42971 144.102797 
L 168.082944 144.494129 
L 168.736178 143.696468 
L 169.389412 144.433152 
L 170.042645 144.937738 
L 170.695879 143.484815 
L 171.349113 144.351737 
L 172.002347 144.48842 
L 172.65558 143.904547 
L 173.308814 144.650259 
L 173.962048 143.715862 
L 174.615281 144.959874 
L 175.268515 144.774746 
L 175.921749 143.237978 
L 176.574983 144.36924 
L 177.88145 144.873106 
L 179.187918 144.361267 
L 179.841151 144.319102 
L 180.494385 143.534896 
L 181.147619 144.951618 
L 181.800853 143.322407 
L 183.10732 144.029367 
L 183.760554 143.865862 
L 184.413788 143.856621 
L 185.067021 144.675584 
L 185.720255 143.984336 
L 186.373489 144.127586 
L 187.026723 143.709097 
L 187.679956 143.734893 
L 188.33319 144.232923 
L 188.986424 143.350991 
L 190.292891 143.314034 
L 190.946125 142.811802 
L 191.599359 143.33981 
L 192.252592 143.117864 
L 192.905826 143.622205 
L 193.55906 143.174891 
L 194.212294 144.034102 
L 194.865527 142.890831 
L 195.518761 143.033748 
L 196.171995 142.254016 
L 196.825229 142.848502 
L 197.478462 143.613876 
L 198.78493 143.04833 
L 199.438164 142.993847 
L 200.744631 142.589403 
L 201.397865 143.676072 
L 202.051099 142.871791 
L 202.704332 143.576203 
L 203.357566 142.549102 
L 204.664034 142.986469 
L 205.317267 141.978486 
L 205.970501 143.139171 
L 206.623735 142.951448 
L 207.276968 143.317012 
L 207.930202 141.977263 
L 208.583436 142.597109 
L 209.23667 142.082653 
L 209.889903 142.524029 
L 210.543137 141.882802 
L 211.196371 142.3077 
L 211.849605 143.845563 
L 212.502838 142.954242 
L 213.156072 143.240165 
L 213.809306 142.901934 
L 214.46254 141.402979 
L 215.115773 143.051794 
L 215.769007 143.770173 
L 216.422241 142.524617 
L 217.728708 143.297174 
L 218.381942 141.857255 
L 219.68841 143.300942 
L 220.341643 142.539748 
L 220.994877 142.924667 
L 221.648111 142.044075 
L 222.301345 143.192893 
L 222.954578 143.938484 
L 223.607812 142.72442 
L 224.261046 142.251307 
L 224.914279 142.30067 
L 225.567513 141.521625 
L 226.220747 142.722267 
L 226.873981 141.147726 
L 228.180448 141.78844 
L 228.833682 142.418081 
L 229.486916 142.639625 
L 230.140149 143.212408 
L 230.793383 142.406704 
L 231.446617 142.837805 
L 232.099851 142.349679 
L 232.753084 142.51488 
L 233.406318 143.135075 
L 234.059552 143.359071 
L 234.712786 143.156294 
L 235.366019 143.352853 
L 236.019253 142.576272 
L 236.672487 142.753192 
L 237.325721 143.65064 
L 237.978954 142.812497 
L 238.632188 142.400278 
L 239.285422 142.676281 
L 239.938655 142.703438 
L 241.245123 141.817402 
L 241.898357 143.264602 
L 242.55159 143.028822 
L 243.204824 141.030031 
L 243.858058 142.393151 
L 244.511292 141.644981 
L 245.164525 142.392104 
L 246.470993 142.537968 
L 247.124227 142.116353 
L 247.77746 142.078507 
L 248.430694 140.924322 
L 249.083928 142.166796 
L 249.737162 143.137684 
L 250.390395 142.053679 
L 251.043629 142.86741 
L 251.696863 141.755764 
L 252.350097 142.516124 
L 253.00333 142.58689 
L 253.656564 142.513673 
L 254.309798 143.174451 
L 254.963032 142.606506 
L 255.616265 141.165322 
L 256.269499 143.193136 
L 256.922733 142.178697 
L 257.575966 141.502745 
L 258.2292 142.236134 
L 258.882434 142.499315 
L 259.535668 142.47221 
L 260.188901 142.809427 
L 260.842135 141.962669 
L 262.148603 141.299383 
L 262.801836 141.888905 
L 263.45507 141.636281 
L 264.108304 143.304141 
L 264.761538 141.446231 
L 265.414771 141.096527 
L 266.721239 140.88189 
L 267.374473 142.318156 
L 268.68094 140.849839 
L 269.334174 140.540025 
L 269.987408 142.035133 
L 270.640641 141.049749 
L 271.293875 142.23961 
L 271.947109 141.390321 
L 272.600343 141.250153 
L 273.253576 140.649651 
L 273.90681 142.260712 
L 274.560044 141.334903 
L 275.866511 141.182325 
L 276.519745 140.812083 
L 277.172979 142.029607 
L 277.826212 142.494829 
L 278.479446 140.58698 
L 279.13268 141.131563 
L 280.439147 139.944857 
L 281.092381 140.560845 
L 281.745615 141.627253 
L 282.398849 139.60503 
L 283.052082 139.907854 
L 283.705316 140.43097 
L 284.35855 140.19095 
L 285.011784 139.640563 
L 285.665017 140.39226 
L 286.318251 140.315207 
L 286.971485 140.810443 
L 287.624719 140.395269 
L 288.277952 140.11753 
L 288.931186 140.11433 
L 289.58442 139.975025 
L 290.237653 140.806212 
L 290.890887 139.771795 
L 291.544121 140.842385 
L 292.850588 139.705024 
L 293.503822 139.507997 
L 294.157056 141.285717 
L 294.81029 141.543833 
L 295.463523 139.456186 
L 296.116757 139.61772 
L 296.769991 139.451122 
L 297.423225 140.314675 
L 298.076458 140.609603 
L 298.729692 140.211104 
L 299.382926 139.978353 
L 300.03616 139.909068 
L 300.689393 139.617367 
L 301.342627 138.67791 
L 301.995861 139.479676 
L 302.649095 140.460468 
L 303.302328 140.29959 
L 303.955562 139.355488 
L 304.608796 139.233286 
L 305.915263 140.116925 
L 306.568497 139.619004 
L 307.221731 138.805959 
L 307.874964 139.560603 
L 308.528198 140.016722 
L 309.181432 139.635175 
L 309.834666 139.087523 
L 310.487899 140.258927 
L 311.141133 139.864868 
L 311.794367 139.323087 
L 313.100834 138.940806 
L 313.754068 138.671173 
L 314.407302 139.470551 
L 315.060536 139.211488 
L 315.713769 139.264182 
L 316.367003 139.720407 
L 317.020237 140.036762 
L 317.673471 139.553128 
L 318.326704 138.745373 
L 318.979938 139.954605 
L 319.633172 138.963826 
L 320.939639 138.329578 
L 321.592873 137.71439 
L 322.246107 138.292891 
L 322.89934 139.221008 
L 323.552574 138.790161 
L 324.205808 139.99393 
L 324.859042 139.112795 
L 325.512275 138.906577 
L 326.165509 139.37829 
L 326.818743 137.725213 
L 327.471977 138.103597 
L 328.12521 138.041065 
L 328.778444 138.753192 
L 329.431678 138.693684 
L 330.084912 138.161886 
L 330.738145 136.918811 
L 331.391379 138.252616 
L 332.044613 138.455605 
L 332.697847 137.73833 
L 333.35108 137.684661 
L 334.004314 138.508392 
L 334.657548 137.922006 
L 335.310782 137.099066 
L 335.964015 137.354647 
L 337.270483 137.563551 
L 337.923717 136.861304 
L 338.57695 135.420441 
L 339.230184 135.764358 
L 339.883418 137.014283 
L 340.536651 137.79901 
L 341.189885 136.806065 
L 341.843119 137.004156 
L 342.496353 137.548728 
L 343.149586 136.19708 
L 343.80282 136.853336 
L 345.109288 134.643795 
L 345.762521 137.089325 
L 346.415755 135.040341 
L 347.068989 136.492623 
L 347.722223 136.349892 
L 348.375456 136.05979 
L 349.02869 136.723593 
L 349.681924 136.7563 
L 350.335158 137.121685 
L 350.988391 136.828851 
L 351.641625 136.184819 
L 352.294859 137.439284 
L 352.948093 138.363891 
L 353.601326 137.243543 
L 354.25456 137.238713 
L 354.907794 135.718338 
L 355.561028 136.913157 
L 356.214261 136.858185 
L 356.867495 136.402915 
L 357.520729 135.622293 
L 358.173962 136.963017 
L 358.827196 134.990977 
L 359.48043 136.438516 
L 360.133664 135.599438 
L 360.786897 137.952749 
L 361.440131 137.342777 
L 362.093365 135.796418 
L 362.746599 136.225651 
L 363.399832 137.021955 
L 364.053066 138.071147 
L 364.7063 137.267191 
L 365.359534 136.2447 
L 366.666001 135.850421 
L 367.319235 136.528333 
L 367.972469 136.134433 
L 369.278936 137.509322 
L 369.93217 136.128722 
L 370.585404 136.382663 
L 371.238637 136.077092 
L 371.891871 137.220834 
L 372.545105 136.756957 
L 373.198338 134.871958 
L 373.851572 135.17983 
L 374.504806 136.651506 
L 375.15804 135.497752 
L 375.811273 135.976091 
L 376.464507 136.832183 
L 377.117741 136.097606 
L 377.770975 137.16452 
L 378.424208 135.496756 
L 379.730676 136.024081 
L 380.38391 135.372403 
L 381.037143 135.344243 
L 381.690377 135.49528 
L 382.343611 134.827346 
L 383.650078 135.923173 
L 384.303312 135.762142 
L 384.956546 135.465901 
L 385.60978 135.96377 
L 386.263013 134.347593 
L 386.916247 132.174775 
L 387.569481 134.656153 
L 388.222715 135.420292 
L 388.875948 135.320581 
L 389.529182 134.967949 
L 390.182416 135.498875 
L 390.835649 134.297446 
L 391.488883 136.776516 
L 392.142117 136.767033 
L 392.795351 135.789309 
L 393.448584 135.809767 
L 394.101818 135.36552 
L 394.101818 135.36552 
" clip-path="url(#pce4b11cd4b)" style="fill: none; stroke: #ff0000; stroke-opacity: 0.5; stroke-width: 1.5; stroke-linecap: square"/>
   </g>
   <g id="patch_3">
    <path d="M 51.84 244.8 
L 51.84 14.4 
" style="fill: none; stroke: #000000; stroke-width: 0.8; stroke-linejoin: miter; stroke-linecap: square"/>
   </g>
   <g id="patch_4">
    <path d="M 410.4 244.8 
L 410.4 14.4 
" style="fill: none; stroke: #000000; stroke-width: 0.8; stroke-linejoin: miter; stroke-linecap: square"/>
   </g>
   <g id="patch_5">
    <path d="M 51.84 244.8 
L 410.4 244.8 
" style="fill: none; stroke: #000000; stroke-width: 0.8; stroke-linejoin: miter; stroke-linecap: square"/>
   </g>
   <g id="patch_6">
    <path d="M 51.84 14.4 
L 410.4 14.4 
" style="fill: none; stroke: #000000; stroke-width: 0.8; stroke-linejoin: miter; stroke-linecap: square"/>
   </g>
   <g id="legend_1">
    <g id="line2d_18">
     <path d="M 227.11875 44.4 
L 251.11875 44.4 
L 275.11875 44.4 
" style="fill: none; stroke: #000000; stroke-opacity: 0.5; stroke-width: 1.5; stroke-linecap: square"/>
    </g>
    <g id="text_14">
     <!-- Train loss -->
     <g transform="translate(294.31875 52.8) scale(0.24 -0.24)">
      <defs>
       <path id="TimesNewRomanPSMT-54" d="M 3703 4238 
L 3750 3244 
L 3631 3244 
Q 3597 3506 3538 3619 
Q 3441 3800 3280 3886 
Q 3119 3972 2856 3972 
L 2259 3972 
L 2259 734 
Q 2259 344 2344 247 
Q 2463 116 2709 116 
L 2856 116 
L 2856 0 
L 1059 0 
L 1059 116 
L 1209 116 
Q 1478 116 1591 278 
Q 1659 378 1659 734 
L 1659 3972 
L 1150 3972 
Q 853 3972 728 3928 
Q 566 3869 450 3700 
Q 334 3531 313 3244 
L 194 3244 
L 244 4238 
L 3703 4238 
z
" transform="scale(0.015625)"/>
       <path id="TimesNewRomanPSMT-61" d="M 1822 413 
Q 1381 72 1269 19 
Q 1100 -59 909 -59 
Q 613 -59 420 144 
Q 228 347 228 678 
Q 228 888 322 1041 
Q 450 1253 767 1440 
Q 1084 1628 1822 1897 
L 1822 2009 
Q 1822 2438 1686 2597 
Q 1550 2756 1291 2756 
Q 1094 2756 978 2650 
Q 859 2544 859 2406 
L 866 2225 
Q 866 2081 792 2003 
Q 719 1925 600 1925 
Q 484 1925 411 2006 
Q 338 2088 338 2228 
Q 338 2497 613 2722 
Q 888 2947 1384 2947 
Q 1766 2947 2009 2819 
Q 2194 2722 2281 2516 
Q 2338 2381 2338 1966 
L 2338 994 
Q 2338 584 2353 492 
Q 2369 400 2405 369 
Q 2441 338 2488 338 
Q 2538 338 2575 359 
Q 2641 400 2828 588 
L 2828 413 
Q 2478 -56 2159 -56 
Q 2006 -56 1915 50 
Q 1825 156 1822 413 
z
M 1822 616 
L 1822 1706 
Q 1350 1519 1213 1441 
Q 966 1303 859 1153 
Q 753 1003 753 825 
Q 753 600 887 451 
Q 1022 303 1197 303 
Q 1434 303 1822 616 
z
" transform="scale(0.015625)"/>
       <path id="TimesNewRomanPSMT-6c" d="M 1184 4444 
L 1184 647 
Q 1184 378 1223 290 
Q 1263 203 1344 158 
Q 1425 113 1647 113 
L 1647 0 
L 244 0 
L 244 113 
Q 441 113 512 153 
Q 584 194 625 287 
Q 666 381 666 647 
L 666 3247 
Q 666 3731 644 3842 
Q 622 3953 573 3993 
Q 525 4034 450 4034 
Q 369 4034 244 3984 
L 191 4094 
L 1044 4444 
L 1184 4444 
z
" transform="scale(0.015625)"/>
      </defs>
      <use xlink:href="#TimesNewRomanPSMT-54"/>
      <use xlink:href="#TimesNewRomanPSMT-72" x="57.583984"/>
      <use xlink:href="#TimesNewRomanPSMT-61" x="90.884766"/>
      <use xlink:href="#TimesNewRomanPSMT-69" x="135.269531"/>
      <use xlink:href="#TimesNewRomanPSMT-6e" x="163.052734"/>
      <use xlink:href="#TimesNewRomanPSMT-20" x="213.052734"/>
      <use xlink:href="#TimesNewRomanPSMT-6c" x="238.052734"/>
      <use xlink:href="#TimesNewRomanPSMT-6f" x="265.835938"/>
      <use xlink:href="#TimesNewRomanPSMT-73" x="315.835938"/>
      <use xlink:href="#TimesNewRomanPSMT-73" x="354.751953"/>
     </g>
    </g>
    <g id="line2d_19">
     <path d="M 227.11875 78.33375 
L 251.11875 78.33375 
L 275.11875 78.33375 
" style="fill: none; stroke: #ff0000; stroke-opacity: 0.5; stroke-width: 1.5; stroke-linecap: square"/>
    </g>
    <g id="text_15">
     <!-- Test loss -->
     <g transform="translate(294.31875 86.73375) scale(0.24 -0.24)">
      <defs>
       <path id="TimesNewRomanPSMT-74" d="M 1031 3803 
L 1031 2863 
L 1700 2863 
L 1700 2644 
L 1031 2644 
L 1031 788 
Q 1031 509 1111 412 
Q 1191 316 1316 316 
Q 1419 316 1516 380 
Q 1613 444 1666 569 
L 1788 569 
Q 1678 263 1478 108 
Q 1278 -47 1066 -47 
Q 922 -47 784 33 
Q 647 113 581 261 
Q 516 409 516 719 
L 516 2644 
L 63 2644 
L 63 2747 
Q 234 2816 414 2980 
Q 594 3144 734 3369 
Q 806 3488 934 3803 
L 1031 3803 
z
" transform="scale(0.015625)"/>
      </defs>
      <use xlink:href="#TimesNewRomanPSMT-54"/>
      <use xlink:href="#TimesNewRomanPSMT-65" x="54.083984"/>
      <use xlink:href="#TimesNewRomanPSMT-73" x="98.46875"/>
      <use xlink:href="#TimesNewRomanPSMT-74" x="137.384766"/>
      <use xlink:href="#TimesNewRomanPSMT-20" x="165.167969"/>
      <use xlink:href="#TimesNewRomanPSMT-6c" x="190.167969"/>
      <use xlink:href="#TimesNewRomanPSMT-6f" x="217.951172"/>
      <use xlink:href="#TimesNewRomanPSMT-73" x="267.951172"/>
      <use xlink:href="#TimesNewRomanPSMT-73" x="306.867188"/>
     </g>
    </g>
   </g>
  </g>
 </g>
 <defs>
  <clipPath id="pce4b11cd4b">
   <rect x="51.84" y="14.4" width="358.56" height="230.4"/>
  </clipPath>
 </defs>
</svg>
